<?xml version="1.0" encoding="UTF-8"?>
<svg id="Layer_1" xmlns="http://www.w3.org/2000/svg" version="1.1" viewBox="0 0 252 144">
  <!-- Generator: Adobe Illustrator 29.4.0, SVG Export Plug-In . SVG Version: 2.1.0 Build 152)  -->
  <defs>
    <style>
      .st0 {
        opacity: .1;
      }

      .st0, .st1 {
        fill: #f7f7f9;
      }

      .st2, .st3, .st4, .st5, .st6 {
        stroke-miterlimit: 10;
      }

      .st2, .st3, .st6 {
        stroke: #2c296a;
      }

      .st2, .st4, .st5, .st6 {
        fill: none;
      }

      .st3, .st7 {
        fill: #0087c7;
      }

      .st8 {
        fill: #2c296a;
        font-family: RoxboroughCF-DemiBold, 'Roxborough CF';
        font-size: 10.75px;
        font-weight: 300;
      }

      .st4 {
        stroke: #f9f9fd;
        stroke-width: .25px;
      }

      .st9 {
        opacity: .2;
      }

      .st5 {
        stroke: #f9fafd;
        stroke-width: 3.5px;
      }

      .st6 {
        stroke-width: .5px;
      }
    </style>
  </defs>
  
  <text class="st8" transform="translate(57.53 115.79)"><tspan x="0" y="0">Social Media, Measured Right. </tspan></text>
  <g>
    <polygon class="st3" points="123.08 53.91 113.45 69.42 121.29 69.42 122.43 77.26 134.37 57.5 144.64 77.26 146.92 68.6 155.42 70.56 142.95 49.58 123.08 53.91"/>
    <path class="st3" d="M144.34,56.62s9.31,2.29,9.14-8c0,0-.82-3.43,1.63-5.06,0,0,5.39-3.34.82-10.97,0,0-3.1-.78-3.1-6.01,0,0-.82-7.51-8.49-6.53,0,0-2.45.49-4.74-2.12,0,0-4.08-5.06-11.1-.65,0,0-2.12,3.76-4.9,2.61,0,0-7.67.65-7.67,7.51,0,0,.65,4.74-2.29,5.88,0,0-6.04,5.39,0,9.96,0,0,3.59,1.63,2.29,5.72,0,0-.33,8.6,6.86,7.89,0,0,4.74-.87,7.02,2.56,0,0,5.72,6.04,9.47,0,0,0,1.63-3.92,5.06-2.78Z"/>
    <circle class="st3" cx="134.84" cy="38.72" r="13.55" transform="translate(-4.46 22.1) rotate(-9.22)"/>
    <polyline class="st2" points="129.41 41.1 134.37 44.7 143.25 32.64"/>
    <g>
      <path class="st6" d="M130.34,34.38s4.02-1.82,7.67,0"/>
      <path class="st6" d="M129.51,32.45s5.09-2.3,9.7,0"/>
      <path class="st6" d="M131.19,36.27s3.19-.91,6.08,0"/>
    </g>
  </g>
  <path class="st1" d="M70.92,93.42h-4.1c-.08-.57-.27-1.09-.58-1.54-.45-.62-1.15-.93-2.09-.93-1.35,0-2.27.67-2.77,2.01-.26.71-.39,1.66-.39,2.84s.13,2.03.39,2.71c.48,1.27,1.38,1.91,2.7,1.91.94,0,1.6-.25,1.99-.76.39-.51.63-1.16.72-1.97h4.09c-.09,1.22-.53,2.37-1.32,3.46-1.26,1.75-3.11,2.63-5.58,2.63s-4.27-.73-5.44-2.19-1.74-3.36-1.74-5.69c0-2.63.64-4.68,1.92-6.14,1.28-1.46,3.05-2.19,5.31-2.19,1.92,0,3.49.43,4.71,1.29,1.22.86,1.95,2.38,2.17,4.57Z"/>
  <path class="st1" d="M87.51,94.25v8.99h-4.09v-9.31c0-.82-.14-1.49-.42-1.99-.37-.71-1.06-1.07-2.08-1.07s-1.86.35-2.41,1.06c-.55.71-.82,1.72-.82,3.03v8.29h-3.99v-20.64h3.99v7.32c.58-.89,1.25-1.51,2.02-1.86.76-.35,1.57-.53,2.41-.53.95,0,1.81.16,2.58.49.77.33,1.41.83,1.9,1.5.42.57.68,1.16.77,1.76.09.6.14,1.59.14,2.96Z"/>
  <path class="st1" d="M104.02,89.86c1.29,1.62,1.94,3.54,1.94,5.75s-.65,4.17-1.94,5.77-3.25,2.4-5.89,2.4-4.59-.8-5.89-2.4-1.94-3.52-1.94-5.77.65-4.12,1.94-5.75,3.25-2.43,5.89-2.43,4.59.81,5.89,2.43ZM98.12,90.82c-1.17,0-2.07.42-2.7,1.24-.63.83-.95,2.01-.95,3.55s.32,2.72.95,3.55c.63.83,1.53,1.25,2.7,1.25s2.07-.42,2.7-1.25c.63-.83.94-2.02.94-3.55s-.31-2.72-.94-3.55c-.63-.83-1.53-1.24-2.7-1.24Z"/>
  <path class="st1" d="M123.72,97.48c0,3.42-2.88,6.16-7.94,6.16-3.42,0-6.13-1.21-7.68-2.7l2.62-4.14c-.4,3.94,2.96,6.36,6.27,6.36s4.08-2.39,4.08-4c0-2.67-2.01-3.39-5.44-4.2-5.52-1.29-6.99-4.14-6.99-6.59,0-3.48,2.96-5.67,7.54-5.67,3.34,0,5.67,1.15,7.19,2.62l-2.67,4.17c.49-3.94-2.65-6.33-5.84-6.33-2.73,0-3.54,1.81-3.54,3.51,0,3.11,2.65,4,5.67,4.69,5.64,1.29,6.73,4.03,6.73,6.13Z"/>
  <path class="st1" d="M126.02,96.48c0-4.6,3.83-7.36,8.26-7.36,2.47,0,4.2.86,5.09,1.93l-2.82,4.23h-.06c1.27-3.65-.69-5.69-3.02-5.69-2.19,0-3.97,1.81-3.97,5.32,0,4.05,2.33,7.16,5.84,7.16,1.24,0,2.96-.37,3.85-1.52l.14.12c-.86,1.55-2.79,2.79-5.7,2.79-4.4,0-7.62-2.76-7.62-6.96Z"/>
  <path class="st1" d="M156.14,96.27c0,4.23-3.05,7.16-7.59,7.16s-7.59-2.88-7.59-7.16,3.05-7.16,7.59-7.16,7.59,2.88,7.59,7.16ZM152.86,98.4c0-3.91-1.93-8.8-5.44-8.8-2.13,0-3.19,1.73-3.19,4.57,0,3.88,1.96,8.77,5.44,8.77,2.13,0,3.19-1.75,3.19-4.54Z"/>
  <path class="st1" d="M168.6,89.49l-2.76,4.57h-.12c.69-1.78.12-3.02-.92-3.02-1.35,0-2.13,1.78-2.39,3.77v5.75c0,1.55.26,2.1,1.12,2.67h-4.63l.14-1.98v-11.04c-.4-.26-1.15-.46-1.75-.52v-.12l5.26-.43-.14,2.13v.92h.37c.66-1.84,2.24-3.05,4.23-3.05.58,0,1.04.09,1.58.34Z"/>
  <path class="st1" d="M182.87,100.5c-.86,1.61-3.19,2.93-6.24,2.93-4.43,0-7.59-2.76-7.59-6.93,0-4.63,3.94-7.39,8.2-7.39,6.16,0,6.7,6.13,3.05,6.13h-7.77c.06,4.06,2.33,6.82,5.78,6.82,1.44,0,3.54-.46,4.43-1.67l.14.12ZM172.51,94.75l6.13-.06c1.9-.03,1.06-5.09-2.39-5.09-2.04,0-3.62,1.93-3.74,5.15Z"/>
  <path class="st1" d="M185,101.37c0-1.09.95-1.96,2.07-1.96s2.01.86,2.01,1.96c0,1.18-.95,2.07-2.01,2.07-1.12,0-2.07-.89-2.07-2.07Z"/>
  <path class="st1" d="M206.63,103.49v.09l-5.21-.89s.03,0,.03-.03c-.92.49-2.07.78-3.42.78-4.14,0-6.93-2.53-6.93-6.59s2.93-7.74,9-7.74c1.84,0,3.68.34,5.41,1.06v10.7c0,1.55.26,2.04,1.12,2.62ZM199.82,102.54c.98,0,1.7-.34,2.27-.98.03-.26.06-.63.06-1.06v-9.29c-.89-.95-1.96-1.55-3.39-1.55-2.76,0-4.26,2.21-4.26,5.58,0,4.14,2.3,7.31,5.32,7.31Z"/>
  <path class="st1" d="M209.83,101.25v-11.04c-.4-.26-1.15-.46-1.75-.52v-.12l5.26-.43-.14,2.13v9.29c0,1.55.26,2.1,1.12,2.67h-4.66l.17-1.98ZM212.64,83.26c.2.17-.05-.04,0,0"/>
  <path class="st5" d="M35.65,95.92s8.33-5.74,17.54-4.59"/>
  <path class="st5" d="M31.68,88.49s10.54-7.26,22.21-5.81"/>
  <path class="st5" d="M39.64,103.27s6.86-3.57,13.91-3.64"/>
  <path class="st1" d="M50.03,107.31"/>
  <path class="st0" d="M46.19,108.95c-1.61,1.95-1.33,4.83.61,6.43,1.95,1.61,4.83,1.33,6.43-.61,1.61-1.95,1.33-4.83-.61-6.43-.77-.63-1.68-.98-2.6-1.04,0,0-.78,2.36-.31,4.23l-3.52-2.59Z"/>
  <g class="st9">
    <path class="st4" d="M213.93,80.48s1.58.66,2.26,2.08"/>
    <path class="st4" d="M214.63,79.24s2,.84,2.86,2.64"/>
    <path class="st4" d="M213.25,81.73s1.14.65,1.79,1.65"/>
  </g>
  <path class="st1" d="M47.27,108.01"/>
  <path class="st1" d="M213.24,84.42c.13,1.15-.71,2.19-1.86,2.32s-2.19-.71-2.32-1.86.71-2.19,1.86-2.32c.45-.05.89.05,1.26.26,0,0-.3,1.1-.95,1.7l2.01-.1Z"/>
</svg>